# xmcd
#
# Track frame offsets:
#	150
#	19273
#	41688
#	59046
#	76621
#	99504
#	115242
#	133194
#	146992
#	169691
#	185209
#	208625
#
# Disc length: 2964 seconds
#
# Revision: 5
# Processed by: cddbd v1.5.2PL0 Copyright (c) Steve Scherf et al.
# Submitted via: EasyCDDAExtractor 12.0.1.1
#
DISCID=b20b920c
DTITLE=Various Artist - Cohen på norsk
DYEAR=1993
DGENRE=Folk/Rock
TTITLE0=Dans meg gjennom kropp og ånd - Somebody's Darling
TTITLE1=Alle vet jo det - Kari Bremnes
TTITLE2=Spurv på en snor - Kirsten Bråten Berg
TTITLE3=Susanne - Kristin Solli
TTITLE4=Jeanne d'Arc - Claudia Scott
TTITLE5=Barmhjertige søstre - Sidsel Endresen
TTITLE6=Kapteinen - Somebody's Darling
TTITLE7=Det er krig - Claudia Scott
TTITLE8=Gikk du noen gang fri? - Kari Bremnes
TTITLE9=Hvem i flammer - Kristin Solli
TTITLE10=På gjensyn, lille venn - Kirsten Bråten Berg
TTITLE11=Du vet hvem jeg er - Sidsel Endresen
EXTD=
EXTT0=
EXTT1=
EXTT2=
EXTT3=
EXTT4=
EXTT5=
EXTT6=
EXTT7=
EXTT8=
EXTT9=
EXTT10=
EXTT11=
PLAYORDER=
